<svg width="30" height="30" viewBox="0 0 30 30" fill="none" xmlns="http://www.w3.org/2000/svg">
<g clip-path="url(#clip0)">
<path d="M0.445395 10.8437C0.841547 10.3467 1.43586 10.0615 2.07606 10.0615H7.85364L10.9866 2.88774C11.1808 2.44296 11.6989 2.23969 12.1438 2.43405C12.5886 2.62829 12.7917 3.14643 12.5974 3.59128L9.77176 10.0616H20.2283L17.4026 3.59128C17.2084 3.14643 17.4115 2.62835 17.8563 2.43405C18.3011 2.23969 18.8192 2.44284 19.0135 2.88774L22.1464 10.0616H27.924C28.5642 10.0616 29.1585 10.3467 29.5547 10.8437C29.9435 11.3317 30.087 11.959 29.9483 12.565L26.863 26.0415C26.6475 26.9825 25.8151 27.6397 24.8386 27.6397H5.16143C4.18497 27.6397 3.35252 26.9825 3.13707 26.0415L0.0517021 12.5649C-0.0869893 11.9589 0.0565083 11.3316 0.445395 10.8437ZM5.16143 25.8819H24.8386C24.9879 25.8819 25.1186 25.784 25.1495 25.6491L28.2348 12.1727C28.259 12.0669 28.2184 11.9873 28.18 11.9392C28.1444 11.8945 28.0637 11.8194 27.924 11.8194H22.914L23.1443 12.3466C23.3385 12.7914 23.1354 13.3095 22.6906 13.5038C22.5761 13.5539 22.4568 13.5775 22.3393 13.5775C22.0005 13.5775 21.6777 13.3805 21.5334 13.0502L20.9959 11.8195H9.00401L8.46653 13.0502C8.32227 13.3805 7.99942 13.5775 7.66063 13.5775C7.54321 13.5775 7.42385 13.5539 7.30936 13.5038C6.86452 13.3096 6.66137 12.7914 6.85567 12.3466L7.08588 11.8194H2.07594C1.93625 11.8194 1.85557 11.8945 1.81995 11.9392C1.78157 11.9874 1.7409 12.067 1.7651 12.1726L4.85047 25.6492C4.88141 25.784 5.01219 25.8819 5.16143 25.8819Z" fill="#EEEEEE"/>
<path d="M20.2734 15.628C20.7588 15.628 21.1523 16.0215 21.1523 16.5069V22.9522C21.1523 23.4376 20.7588 23.8311 20.2734 23.8311C19.788 23.8311 19.3945 23.4376 19.3945 22.9522V16.5069C19.3945 16.0215 19.788 15.628 20.2734 15.628Z" fill="#EEEEEE"/>
<path d="M15 15.628C15.4854 15.628 15.8789 16.0215 15.8789 16.5069V22.9522C15.8789 23.4376 15.4854 23.8311 15 23.8311C14.5146 23.8311 14.1211 23.4376 14.1211 22.9522V16.5069C14.1211 16.0215 14.5146 15.628 15 15.628Z" fill="#EEEEEE"/>
<path d="M9.72656 15.628C10.212 15.628 10.6055 16.0215 10.6055 16.5069V22.9522C10.6055 23.4376 10.212 23.8311 9.72656 23.8311C9.24117 23.8311 8.84766 23.4376 8.84766 22.9522V16.5069C8.84771 16.0215 9.24117 15.628 9.72656 15.628Z" fill="#EEEEEE"/>
</g>
<defs>
<clipPath id="clip0">
<rect width="30" height="30" fill="white" transform="matrix(-1 0 0 1 30 0)"/>
</clipPath>
</defs>
</svg>
